<svg width="44" height="44" viewBox="0 0 44 44" fill="none" xmlns="http://www.w3.org/2000/svg">
<path d="M21.9981 13.5245C19.7498 13.5245 17.5936 14.4177 16.0038 16.0075C14.414 17.5973 13.5208 19.7535 13.5208 22.0018C13.5208 24.2502 14.414 26.4064 16.0038 27.9962C17.5936 29.586 19.7498 30.4792 21.9981 30.4792C24.2465 30.4792 26.4027 29.586 27.9925 27.9962C29.5823 26.4064 30.4755 24.2502 30.4755 22.0018C30.4755 19.7535 29.5823 17.5973 27.9925 16.0075C26.4027 14.4177 24.2465 13.5245 21.9981 13.5245ZM21.9981 27.5073C20.5375 27.5073 19.1367 26.9271 18.1039 25.8943C17.071 24.8615 16.4908 23.4606 16.4908 22C16.4908 20.5394 17.071 19.1386 18.1039 18.1057C19.1367 17.0729 20.5375 16.4927 21.9981 16.4927C23.4588 16.4927 24.8596 17.0729 25.8924 18.1057C26.9252 19.1386 27.5055 20.5394 27.5055 22C27.5055 23.4606 26.9252 24.8615 25.8924 25.8943C24.8596 26.9271 23.4588 27.5073 21.9981 27.5073Z" fill="#73D043"/>
<path d="M30.811 15.1892C31.9025 15.1892 32.7873 14.3043 32.7873 13.2128C32.7873 12.1213 31.9025 11.2365 30.811 11.2365C29.7195 11.2365 28.8347 12.1213 28.8347 13.2128C28.8347 14.3043 29.7195 15.1892 30.811 15.1892Z" fill="#73D043"/>
<path d="M37.6438 11.2035C37.2194 10.1075 36.5708 9.11217 35.7396 8.28126C34.9084 7.45035 33.9128 6.80215 32.8167 6.37816C31.5339 5.89664 30.1788 5.63628 28.809 5.60816C27.0435 5.53116 26.4843 5.50916 22.0073 5.50916C17.5303 5.50916 16.9565 5.50916 15.2057 5.60816C13.8369 5.63484 12.4827 5.89526 11.2017 6.37816C10.1052 6.80166 9.1094 7.44968 8.27811 8.28066C7.44682 9.11163 6.79841 10.1072 6.3745 11.2035C5.89289 12.4861 5.63312 13.8414 5.60633 15.2112C5.5275 16.9748 5.50366 17.534 5.50366 22.0128C5.50366 26.4898 5.50366 27.06 5.60633 28.8145C5.63383 30.1858 5.89233 31.5388 6.3745 32.824C6.7996 33.9199 7.44864 34.9151 8.28013 35.7459C9.11162 36.5768 10.1073 37.225 11.2035 37.6493C12.4821 38.1502 13.8368 38.4292 15.2093 38.4743C16.9748 38.5513 17.534 38.5752 22.011 38.5752C26.488 38.5752 27.0618 38.5752 28.8127 38.4743C30.1824 38.4465 31.5374 38.1867 32.8203 37.7062C33.9162 37.2812 34.9115 36.6324 35.7426 35.8013C36.5737 34.9701 37.2225 33.9749 37.6475 32.879C38.1297 31.5957 38.3882 30.2427 38.4157 28.8713C38.4945 27.1077 38.5183 26.5485 38.5183 22.0697C38.5183 17.5908 38.5183 17.0225 38.4157 15.268C38.3943 13.8788 38.1332 12.5038 37.6438 11.2035ZM35.4108 28.6788C35.399 29.7354 35.2062 30.7821 34.8407 31.7735C34.5653 32.4864 34.1439 33.1338 33.6033 33.6741C33.0627 34.2143 32.4151 34.6354 31.702 34.9103C30.7216 35.2741 29.686 35.467 28.6403 35.4805C26.8987 35.5612 26.4073 35.5813 21.9413 35.5813C17.4717 35.5813 17.0152 35.5813 15.2405 35.4805C14.1954 35.4677 13.1603 35.2748 12.1807 34.9103C11.4651 34.6371 10.8148 34.2168 10.272 33.6764C9.72909 33.1361 9.30569 32.4878 9.02916 31.7735C8.66881 30.7927 8.47607 29.7584 8.459 28.7137C8.38016 26.972 8.36183 26.4807 8.36183 22.0147C8.36183 17.5468 8.36183 17.0903 8.459 15.3138C8.47085 14.2579 8.6637 13.2118 9.02916 12.221C9.58833 10.7745 10.7342 9.63599 12.1807 9.08232C13.1607 8.71958 14.1955 8.52676 15.2405 8.51216C16.984 8.43332 17.4735 8.41132 21.9413 8.41132C26.4092 8.41132 26.8675 8.41132 28.6403 8.51216C29.6861 8.52474 30.7218 8.71762 31.702 9.08232C32.415 9.35782 33.0626 9.77936 33.6031 10.3199C34.1436 10.8604 34.5652 11.508 34.8407 12.221C35.201 13.2017 35.3938 14.2361 35.4108 15.2808C35.4897 17.0243 35.5098 17.5138 35.5098 21.9817C35.5098 26.4477 35.5098 26.928 35.431 28.6807H35.4108V28.6788Z" fill="#73D043"/>
</svg>
