<svg width="45" height="51" viewBox="0 0 45 51" fill="none" xmlns="http://www.w3.org/2000/svg">
<path d="M32.4882 25.6201C32.318 25.4264 32.1158 25.2727 31.8932 25.1678C31.6706 25.063 31.432 25.009 31.1911 25.009C30.9501 25.009 30.7115 25.063 30.4889 25.1678C30.2663 25.2727 30.0641 25.4264 29.8939 25.6201L26.9693 28.9422C25.6134 28.4837 23.0832 27.4416 21.4796 25.6201C19.876 23.7986 18.9587 20.9246 18.555 19.3844L21.4796 16.0623C21.6502 15.8689 21.7855 15.6392 21.8778 15.3864C21.9701 15.1336 22.0176 14.8625 22.0176 14.5888C22.0176 14.3151 21.9701 14.0441 21.8778 13.7913C21.7855 13.5384 21.6502 13.3087 21.4796 13.1154L14.1406 4.77888C13.9703 4.58517 13.7681 4.43149 13.5455 4.32664C13.323 4.22179 13.0844 4.16782 12.8434 4.16782C12.6024 4.16782 12.3638 4.22179 12.1412 4.32664C11.9187 4.43149 11.7165 4.58517 11.5462 4.77888L6.57032 10.431C5.87311 11.223 5.48047 12.3109 5.49515 13.4217C5.53735 16.3895 6.22906 26.6976 13.381 34.8215C20.5329 42.9454 29.6077 43.729 32.2222 43.779H32.2736C33.2423 43.779 34.1579 43.3455 34.8514 42.5577L39.8273 36.9056C39.9978 36.7122 40.1331 36.4825 40.2254 36.2297C40.3177 35.9769 40.3653 35.7058 40.3653 35.4321C40.3653 35.1584 40.3177 34.8874 40.2254 34.6345C40.1331 34.3817 39.9978 34.152 39.8273 33.9586L32.4882 25.6201ZM32.2552 39.6087C29.9654 39.5649 22.131 38.8667 15.9753 31.8724C9.79951 24.8573 9.20138 15.9268 9.16468 13.378L12.8434 9.1993L17.5881 14.5888L15.2157 17.2836C15.0001 17.5284 14.8415 17.8303 14.7544 18.1622C14.6673 18.4941 14.6543 18.8453 14.7167 19.1843C14.7607 19.424 15.8377 25.1074 18.8834 28.567C21.9292 32.0267 26.9326 33.25 27.1436 33.3001C27.4418 33.3729 27.7514 33.3594 28.0438 33.2607C28.3362 33.162 28.6021 32.9813 28.8169 32.7353L31.1911 30.0405L35.9358 35.43L32.2552 39.6087Z" fill="#73D043"/>
</svg>
