<svg width="34" height="34" viewBox="0 0 34 34" fill="none" xmlns="http://www.w3.org/2000/svg">
<path fill-rule="evenodd" clip-rule="evenodd" d="M28.7388 5.32716C27.2142 3.79245 25.4001 2.57554 23.4017 1.74693C21.4034 0.918325 19.2605 0.494494 17.0972 0.499992C8.02583 0.499992 0.641167 7.88283 0.6375 16.9578C0.6375 19.8582 1.39467 22.6888 2.83383 25.1858L0.5 33.7127L9.22483 31.4228C11.6382 32.7366 14.342 33.4255 17.0898 33.4267H17.0972C26.1667 33.4267 33.5513 26.0438 33.555 16.9688C33.5612 14.8064 33.1388 12.6641 32.3121 10.6659C31.4855 8.66773 30.271 6.85317 28.7388 5.32716ZM17.0972 30.6492H17.0917C14.6414 30.6494 12.2363 29.9902 10.1287 28.7407L9.63 28.4437L4.45267 29.8022L5.83317 24.755L5.50867 24.238C4.13878 22.0571 3.41359 19.5333 3.41683 16.9578C3.4205 9.41549 9.55667 3.27932 17.1027 3.27932C18.8998 3.27533 20.6799 3.62781 22.3399 4.31635C23.9999 5.0049 25.5068 6.01584 26.7735 7.29066C28.047 8.5594 29.0564 10.068 29.7433 11.7292C30.4302 13.3903 30.7811 15.1712 30.7757 16.9688C30.772 24.5112 24.6358 30.6492 17.0972 30.6492ZM24.601 20.4027C24.1885 20.1955 22.1682 19.2018 21.7905 19.0643C21.4147 18.9268 21.1415 18.859 20.8665 19.2697C20.5915 19.6803 19.8032 20.6062 19.563 20.8812C19.3228 21.1562 19.0827 21.1892 18.672 20.9838C18.2613 20.7785 16.9358 20.344 15.3647 18.9433C14.1418 17.8525 13.3168 16.5068 13.0767 16.0943C12.8365 15.6818 13.051 15.46 13.2582 15.2547C13.4433 15.0713 13.6688 14.7743 13.8742 14.5342C14.0795 14.294 14.1473 14.1235 14.2848 13.8485C14.4223 13.5735 14.3545 13.3333 14.25 13.128C14.1473 12.9208 13.3242 10.8968 12.9813 10.0737C12.6495 9.27616 12.3103 9.38249 12.0573 9.37149C11.7953 9.36077 11.5331 9.35588 11.2708 9.35682C11.0623 9.36214 10.8571 9.41048 10.6681 9.49881C10.4792 9.58715 10.3105 9.71357 10.1727 9.87016C9.795 10.2827 8.7335 11.2763 8.7335 13.3003C8.7335 15.3243 10.2075 17.2805 10.4128 17.5555C10.6182 17.8305 13.3132 21.983 17.4382 23.765C18.4208 24.1885 19.1872 24.4415 19.783 24.6322C20.7675 24.9457 21.664 24.8998 22.3735 24.7953C23.1637 24.678 24.8063 23.8017 25.1492 22.841C25.492 21.8803 25.492 21.0572 25.3893 20.8848C25.2867 20.7125 25.0098 20.608 24.601 20.4027Z" fill="#73D043"/>
</svg>
